# xmcd
#
# Track frame offsets: 
#        150
#        26025
#        40360
#        49870
#        58606
#        72501
#        80514
#        93838
#        105474
#        119584
#        133130
#        143241
#
# Disc length: 2040 seconds
#
# Revision: 1
# Processed by: cddbd v1.5PL3 Copyright (c) Steve Scherf et al.
# Submitted via: ExactAudioCopy v0.90b4
#
DISCID=ae07f60c
DTITLE=Marty Robbins - Return Of The Gunfighter
DYEAR=1963
DGENRE=Country
TTITLE0=San Angelo
TTITLE1=Man Walks Among Us
TTITLE2=Tall Handsome Stranger
TTITLE3=Dusty Winds
TTITLE4=The Master's Call
TTITLE5=Fastest Gun Around
TTITLE6=Old Red
TTITLE7=The Bend In The River
TTITLE8=Johnny Fedavo
TTITLE9=Abilene Rose
TTITLE10=Doggone Cowboy
TTITLE11=The Red Hill Of Utah
EXTD=
EXTT0=
EXTT1=
EXTT2=
EXTT3=
EXTT4=
EXTT5=
EXTT6=
EXTT7=
EXTT8=
EXTT9=
EXTT10=
EXTT11=
PLAYORDER=
